<?xml version="1.0" encoding="UTF-8"?>
<svg id="Layer_2" xmlns="http://www.w3.org/2000/svg" xmlns:xlink="http://www.w3.org/1999/xlink" viewBox="0 0 101.67 79.81">
  <defs>
    <style>
      .cls-1 {
        fill: #fff;
      }

      .cls-2 {
        fill: none;
      }

      .cls-3 {
        fill: #77bf3f;
      }

      .cls-4 {
        clip-path: url(#clippath-1);
      }

      .cls-5 {
        fill: #50b948;
      }

      .cls-6 {
        fill: #fbcc06;
      }

      .cls-7 {
        fill: #38a34a;
      }

      .cls-8 {
        clip-path: url(#clippath);
      }
    </style>
    <clipPath id="clippath">
      <rect class="cls-2" x="14.46" width="87.2" height="79.81"/>
    </clipPath>
    <clipPath id="clippath-1">
      <rect class="cls-2" y="16.51" width="29.13" height="45.33"/>
    </clipPath>
  </defs>
  <g id="Layer_1-2" data-name="Layer_1">
    <g class="cls-8">
      <path class="cls-1" d="M18.49,65.47h51.42c2.39,0,4.41-1.78,4.73-4.13l6.27-47.04v-.02C81.96,6.15,88.95-.02,97.18-.02h1.23c1.68,0,3.03,1.35,3.03,3.03s-1.35,3.03-3.03,3.03h-1.23c-5.2,0-9.6,3.88-10.27,9.04v.02l-6.27,47.04c-.71,5.36-5.32,9.4-10.73,9.4h-1.82c-.06,4.41-3.62,7.96-8.05,7.96s-7.98-3.56-8.04-7.96h-12.57c-.06,4.41-3.62,7.96-8.05,7.96s-7.98-3.56-8.04-7.96h-4.85c-1.68,0-3.03-1.35-3.03-3.03s1.35-3.03,3.03-3.03Z"/>
    </g>
    <path class="cls-3" d="M36.64,13.91l10.01-1.21c3.82,6.1,12.11,16.61,26.79,22.88l-2.79,20.84c-20.72-11.95-30.74-33.96-34-42.51Z"/>
    <path class="cls-5" d="M30.44,14.66c2.85,8.13,13.1,32.91,36.28,46.57h-31.81c-10.68-18.66-13.3-39.05-13.91-45.44l9.44-1.13Z"/>
    <path class="cls-6" d="M74.28,29.31c-10.55-4.91-17.2-12.21-20.88-17.43l19.7-2.36c.93-.12,1.86.22,2.53.89s.97,1.6.85,2.53l-2.2,16.38Z"/>
    <g class="cls-4">
      <path class="cls-7" d="M.97,19.1c.51-.65,1.23-1.05,2.04-1.15l11.98-1.44c.6,6.77,3.09,26.04,12.97,44.71h-12.49c-5.58,0-10.35-4.17-11.08-9.7L.4,21.37c-.16-.81.06-1.62.57-2.27Z"/>
    </g>
  </g>
</svg>